<?xml version="1.0" encoding="iso-8859-1"?>
<!-- Generator: Adobe Illustrator 19.0.0, SVG Export Plug-In . SVG Version: 6.00 Build 0)  -->
<svg version="1.1" id="Layer_1" xmlns="http://www.w3.org/2000/svg" xmlns:xlink="http://www.w3.org/1999/xlink" x="0px" y="0px"
	 viewBox="0 0 512 512" style="enable-background:new 0 0 512 512;" xml:space="preserve">
<g>
	<g>
		<path d="M508.875,493.792l-165.68-165.68C368.234,304.733,384,271.547,384,234.667v-53.333c0-5.896-4.771-10.667-10.667-10.667
			c-5.896,0-10.667,4.771-10.667,10.667v53.333c0,31-13.514,58.707-34.702,78.215l-15.078-15.078
			c17.332-15.63,28.447-38.017,28.447-63.137V85.333C341.333,38.281,303.052,0,256,0s-85.333,38.281-85.333,85.333v70.25
			L18.208,3.125c-4.167-4.167-10.917-4.167-15.083,0s-4.167,10.917,0,15.083L170.667,185.75v48.917
			C170.667,281.719,208.948,320,256,320c14.134,0,27.273-3.784,39.025-9.892l15.655,15.655c-16.047,9.671-34.62,15.57-54.68,15.57
			c-58.813,0-106.667-47.854-106.667-106.667v-53.333c0-5.896-4.771-10.667-10.667-10.667c-5.896,0-10.667,4.771-10.667,10.667
			v53.333c0,66.983,51.734,122.01,117.333,127.46V448h-32c-23.531,0-42.667,19.135-42.667,42.667v10.667
			c0,5.896,4.771,10.667,10.667,10.667h149.333c5.896,0,10.667-4.771,10.667-10.667v-10.667c0-23.531-19.135-42.667-42.667-42.667
			h-32v-85.874c21.931-1.822,42.305-9.146,59.717-20.659l167.408,167.408c2.083,2.083,4.813,3.125,7.542,3.125
			c2.729,0,5.458-1.042,7.542-3.125C513.042,504.708,513.042,497.958,508.875,493.792z M298.667,469.333
			c11.76,0,21.333,9.573,21.333,21.333H192c0-11.76,9.573-21.333,21.333-21.333H298.667z M256,298.667c-35.292,0-64-28.708-64-64
			v-27.583l87.102,87.102C271.914,296.984,264.167,298.667,256,298.667z M297.811,282.728L192,176.917V85.333
			c0-35.292,28.708-64,64-64s64,28.708,64,64v149.333C320,253.906,311.29,270.986,297.811,282.728z"/>
	</g>
</g>
<g>
</g>
<g>
</g>
<g>
</g>
<g>
</g>
<g>
</g>
<g>
</g>
<g>
</g>
<g>
</g>
<g>
</g>
<g>
</g>
<g>
</g>
<g>
</g>
<g>
</g>
<g>
</g>
<g>
</g>
</svg>
