<svg id="Capa_1" enable-background="new 0 0 450.824 450.824" height="512" viewBox="0 0 450.824 450.824" width="512" xmlns="http://www.w3.org/2000/svg"><path d="m295.854 112.706c7.773 0 14.088 6.315 14.088 14.088v45.085c0 5.077 2.724 9.754 7.14 12.258s9.851 2.421 14.198-.179l77.279-46.365v175.637l-77.279-46.365c-1.985-1.188-4.231-1.708-6.482-1.832l77.014 77.014 13.584 8.15c4.375 2.6 9.782 2.697 14.198.179 4.416-2.504 7.14-7.182 7.14-12.258v-225.412c0-5.077-2.724-9.754-7.14-12.258-4.43-2.49-9.837-2.435-14.198.179l-77.279 46.365v-20.197c0-23.306-18.959-42.265-42.265-42.265h-151.557l28.176 28.176z"/><path d="m450.824 430.903-430.902-430.903-19.922 19.922 64.608 64.608h-22.343c-23.306 0-42.265 18.958-42.265 42.265v197.235c0 23.306 18.959 42.265 42.265 42.265h253.588c13.773 0 25.877-6.712 33.568-16.952l101.481 101.481zm-154.97-92.784h-253.588c-7.773 0-14.088-6.315-14.088-14.088v-197.236c0-7.773 6.315-14.088 14.088-14.088h50.52l216.177 216.177c-1.993 5.364-7.057 9.235-13.109 9.235z"/></svg>