<svg id="Capa_1" enable-background="new 0 0 499.999 499.999" height="512" viewBox="0 0 499.999 499.999" width="512" xmlns="http://www.w3.org/2000/svg"><path d="m492.354 95.932c-4.745-2.777-10.605-2.884-15.457-.275l-101.898 55.573v-41.855c0-8.636-6.989-15.625-15.625-15.625h-312.499c-25.848 0-46.875 21.026-46.875 46.875v218.75c0 25.848 21.027 46.875 46.875 46.875h312.499c8.636 0 15.625-6.989 15.625-15.625v-41.855l101.898 55.572c2.335 1.266 4.898 1.907 7.477 1.907 2.762 0 5.524-.732 7.98-2.182 4.73-2.823 7.645-7.935 7.645-13.443v-281.249c0-5.509-2.914-10.62-7.645-13.443zm-23.605 268.371-101.898-55.572c-4.852-2.64-10.727-2.548-15.457.275s-7.645 7.935-7.645 13.443v52.551h-296.874c-8.621 0-15.625-7.004-15.625-15.625v-218.75c0-8.621 7.004-15.625 15.625-15.625h296.874v52.551c0 5.508 2.914 10.62 7.645 13.443 4.761 2.838 10.635 2.914 15.457.275l101.898-55.572c0-.001 0 228.606 0 228.606z"/></svg>